<?xml version="1.0" encoding="UTF-8"?>
<svg width="700" height="180" viewBox="0 0 700 180" xmlns="http://www.w3.org/2000/svg">
 <svg x="0" y="0" width="180" height="180" viewBox="0 0 600 600">
  <path d="m300 75a225 225 0 0 0-225 225 225 225 0 0 0 225 225 225 225 0 0 0 221.52-187.5h-156.93a75 75 0 0 1-64.588 37.5 75 75 0 0 1-75-75 75 75 0 0 1 75-75 75 75 0 0 1 64.908 37.5h156.88a225 225 0 0 0-221.79-187.5z" fill="#ffffff" stroke-width="2.3438"/>
 </svg>
 <svg x="210" y="24" width="480" height="130" viewBox="0 0 594.4 161.2">
  <g transform="translate(-20 -20)">
   <path d="m66.544 52q-0.144 0-0.144 0t0 0.144v10.512q0 0.144 0 0.144t0.144 0h10.512q0.144 0 0.144 0t0-0.144v-10.512q0-0.144 0-0.144t-0.144 0zm14.4 0q-0.144 0-0.144 0t0 0.144v10.512q0 0.144 0 0.144t0.144 0h10.512q0.144 0 0.144 0t0-0.144v-10.512q0-0.144 0-0.144t-0.144 0zm14.4 0q-0.144 0-0.144 0t0 0.144v10.512q0 0.144 0 0.144t0.144 0h10.512q0.144 0 0.144 0t0-0.144v-10.512q0-0.144 0-0.144t-0.144 0zm-43.2 14.4q-0.144 0-0.144 0t0 0.144v10.512q0 0.144 0 0.144t0.144 0h10.512q0.144 0 0.144 0t0-0.144v-10.512q0-0.144 0-0.144t-0.144 0zm57.6 0q-0.144 0-0.144 0t0 0.144v10.512q0 0.144 0 0.144t0.144 0h10.512q0.144 0 0.144 0t0-0.144v-10.512q0-0.144 0-0.144t-0.144 0zm-57.6 14.4q-0.144 0-0.144 0t0 0.144v10.512q0 0.144 0 0.144t0.144 0h10.512q0.144 0 0.144 0t0-0.144v-10.512q0-0.144 0-0.144t-0.144 0zm0 14.4q-0.144 0-0.144 0t0 0.144v10.512q0 0.144 0 0.144t0.144 0h10.512q0.144 0 0.144 0t0-0.144v-10.512q0-0.144 0-0.144t-0.144 0zm0 14.4q-0.144 0-0.144 0t0 0.144v10.512q0 0.144 0 0.144t0.144 0h10.512q0.144 0 0.144 0t0-0.144v-10.512q0-0.144 0-0.144t-0.144 0zm0 14.4q-0.144 0-0.144 0t0 0.144v10.512q0 0.144 0 0.144t0.144 0h10.512q0.144 0 0.144 0t0-0.144v-10.512q0-0.144 0-0.144t-0.144 0zm57.6 0q-0.144 0-0.144 0t0 0.144v10.512q0 0.144 0 0.144t0.144 0h10.512q0.144 0 0.144 0t0-0.144v-10.512q0-0.144 0-0.144t-0.144 0zm-43.2 14.4q-0.144 0-0.144 0t0 0.144v10.512q0 0.144 0 0.144t0.144 0h10.512q0.144 0 0.144 0t0-0.144v-10.512q0-0.144 0-0.144t-0.144 0zm14.4 0q-0.144 0-0.144 0t0 0.144v10.512q0 0.144 0 0.144t0.144 0h10.512q0.144 0 0.144 0t0-0.144v-10.512q0-0.144 0-0.144t-0.144 0zm14.4 0q-0.144 0-0.144 0t0 0.144v10.512q0 0.144 0 0.144t0.144 0h10.512q0.144 0 0.144 0t0-0.144v-10.512q0-0.144 0-0.144t-0.144 0zm49.2-86.4q-0.144 0-0.144 0t0 0.144v10.512q0 0.144 0 0.144t0.144 0h10.512q0.144 0 0.144 0t0-0.144v-10.512q0-0.144 0-0.144t-0.144 0zm14.4 0q-0.144 0-0.144 0t0 0.144v10.512q0 0.144 0 0.144t0.144 0h10.512q0.144 0 0.144 0t0-0.144v-10.512q0-0.144 0-0.144t-0.144 0zm14.4 0q-0.144 0-0.144 0t0 0.144v10.512q0 0.144 0 0.144t0.144 0h10.512q0.144 0 0.144 0t0-0.144v-10.512q0-0.144 0-0.144t-0.144 0zm14.4 0q-0.144 0-0.144 0t0 0.144v10.512q0 0.144 0 0.144t0.144 0h10.512q0.144 0 0.144 0t0-0.144v-10.512q0-0.144 0-0.144t-0.144 0zm-43.2 14.4q-0.144 0-0.144 0t0 0.144v10.512q0 0.144 0 0.144t0.144 0h10.512q0.144 0 0.144 0t0-0.144v-10.512q0-0.144 0-0.144t-0.144 0zm57.6 0q-0.144 0-0.144 0t0 0.144v10.512q0 0.144 0 0.144t0.144 0h10.512q0.144 0 0.144 0t0-0.144v-10.512q0-0.144 0-0.144t-0.144 0zm-57.6 14.4q-0.144 0-0.144 0t0 0.144v10.512q0 0.144 0 0.144t0.144 0h10.512q0.144 0 0.144 0t0-0.144v-10.512q0-0.144 0-0.144t-0.144 0zm57.6 0q-0.144 0-0.144 0t0 0.144v10.512q0 0.144 0 0.144t0.144 0h10.512q0.144 0 0.144 0t0-0.144v-10.512q0-0.144 0-0.144t-0.144 0zm-57.6 14.4q-0.144 0-0.144 0t0 0.144v10.512q0 0.144 0 0.144t0.144 0h10.512q0.144 0 0.144 0t0-0.144v-10.512q0-0.144 0-0.144t-0.144 0zm14.4 0q-0.144 0-0.144 0t0 0.144v10.512q0 0.144 0 0.144t0.144 0h10.512q0.144 0 0.144 0t0-0.144v-10.512q0-0.144 0-0.144t-0.144 0zm14.4 0q-0.144 0-0.144 0t0 0.144v10.512q0 0.144 0 0.144t0.144 0h10.512q0.144 0 0.144 0t0-0.144v-10.512q0-0.144 0-0.144t-0.144 0zm14.4 0q-0.144 0-0.144 0t0 0.144v10.512q0 0.144 0 0.144t0.144 0h10.512q0.144 0 0.144 0t0-0.144v-10.512q0-0.144 0-0.144t-0.144 0zm-43.2 14.4q-0.144 0-0.144 0t0 0.144v10.512q0 0.144 0 0.144t0.144 0h10.512q0.144 0 0.144 0t0-0.144v-10.512q0-0.144 0-0.144t-0.144 0zm28.8 0q-0.144 0-0.144 0t0 0.144v10.512q0 0.144 0 0.144t0.144 0h10.512q0.144 0 0.144 0t0-0.144v-10.512q0-0.144 0-0.144t-0.144 0zm-28.8 14.4q-0.144 0-0.144 0t0 0.144v10.512q0 0.144 0 0.144t0.144 0h10.512q0.144 0 0.144 0t0-0.144v-10.512q0-0.144 0-0.144t-0.144 0zm43.2 0q-0.144 0-0.144 0t0 0.144v10.512q0 0.144 0 0.144t0.144 0h10.512q0.144 0 0.144 0t0-0.144v-10.512q0-0.144 0-0.144t-0.144 0zm-43.2 14.4q-0.144 0-0.144 0t0 0.144v10.512q0 0.144 0 0.144t0.144 0h10.512q0.144 0 0.144 0t0-0.144v-10.512q0-0.144 0-0.144t-0.144 0zm57.6 0q-0.144 0-0.144 0t0 0.144v10.512q0 0.144 0 0.144t0.144 0h10.512q0.144 0 0.144 0t0-0.144v-10.512q0-0.144 0-0.144t-0.144 0zm34.8-86.4q-0.144 0-0.144 0t0 0.144v10.512q0 0.144 0 0.144t0.144 0h10.512q0.144 0 0.144 0t0-0.144v-10.512q0-0.144 0-0.144t-0.144 0zm14.4 0q-0.144 0-0.144 0t0 0.144v10.512q0 0.144 0 0.144t0.144 0h10.512q0.144 0 0.144 0t0-0.144v-10.512q0-0.144 0-0.144t-0.144 0zm14.4 0q-0.144 0-0.144 0t0 0.144v10.512q0 0.144 0 0.144t0.144 0h10.512q0.144 0 0.144 0t0-0.144v-10.512q0-0.144 0-0.144t-0.144 0zm14.4 0q-0.144 0-0.144 0t0 0.144v10.512q0 0.144 0 0.144t0.144 0h10.512q0.144 0 0.144 0t0-0.144v-10.512q0-0.144 0-0.144t-0.144 0zm14.4 0q-0.144 0-0.144 0t0 0.144v10.512q0 0.144 0 0.144t0.144 0h10.512q0.144 0 0.144 0t0-0.144v-10.512q0-0.144 0-0.144t-0.144 0zm-57.6 14.4q-0.144 0-0.144 0t0 0.144v10.512q0 0.144 0 0.144t0.144 0h10.512q0.144 0 0.144 0t0-0.144v-10.512q0-0.144 0-0.144t-0.144 0zm0 14.4q-0.144 0-0.144 0t0 0.144v10.512q0 0.144 0 0.144t0.144 0h10.512q0.144 0 0.144 0t0-0.144v-10.512q0-0.144 0-0.144t-0.144 0zm0 14.4q-0.144 0-0.144 0t0 0.144v10.512q0 0.144 0 0.144t0.144 0h10.512q0.144 0 0.144 0t0-0.144v-10.512q0-0.144 0-0.144t-0.144 0zm14.4 0q-0.144 0-0.144 0t0 0.144v10.512q0 0.144 0 0.144t0.144 0h10.512q0.144 0 0.144 0t0-0.144v-10.512q0-0.144 0-0.144t-0.144 0zm14.4 0q-0.144 0-0.144 0t0 0.144v10.512q0 0.144 0 0.144t0.144 0h10.512q0.144 0 0.144 0t0-0.144v-10.512q0-0.144 0-0.144t-0.144 0zm14.4 0q-0.144 0-0.144 0t0 0.144v10.512q0 0.144 0 0.144t0.144 0h10.512q0.144 0 0.144 0t0-0.144v-10.512q0-0.144 0-0.144t-0.144 0zm-43.2 14.4q-0.144 0-0.144 0t0 0.144v10.512q0 0.144 0 0.144t0.144 0h10.512q0.144 0 0.144 0t0-0.144v-10.512q0-0.144 0-0.144t-0.144 0zm0 14.4q-0.144 0-0.144 0t0 0.144v10.512q0 0.144 0 0.144t0.144 0h10.512q0.144 0 0.144 0t0-0.144v-10.512q0-0.144 0-0.144t-0.144 0zm0 14.4q-0.144 0-0.144 0t0 0.144v10.512q0 0.144 0 0.144t0.144 0h10.512q0.144 0 0.144 0t0-0.144v-10.512q0-0.144 0-0.144t-0.144 0zm14.4 0q-0.144 0-0.144 0t0 0.144v10.512q0 0.144 0 0.144t0.144 0h10.512q0.144 0 0.144 0t0-0.144v-10.512q0-0.144 0-0.144t-0.144 0zm14.4 0q-0.144 0-0.144 0t0 0.144v10.512q0 0.144 0 0.144t0.144 0h10.512q0.144 0 0.144 0t0-0.144v-10.512q0-0.144 0-0.144t-0.144 0zm14.4 0q-0.144 0-0.144 0t0 0.144v10.512q0 0.144 0 0.144t0.144 0h10.512q0.144 0 0.144 0t0-0.144v-10.512q0-0.144 0-0.144t-0.144 0zm14.4 0q-0.144 0-0.144 0t0 0.144v10.512q0 0.144 0 0.144t0.144 0h10.512q0.144 0 0.144 0t0-0.144v-10.512q0-0.144 0-0.144t-0.144 0zm34.8-86.4q-0.144 0-0.144 0t0 0.144v10.512q0 0.144 0 0.144t0.144 0h10.512q0.144 0 0.144 0t0-0.144v-10.512q0-0.144 0-0.144t-0.144 0zm14.4 0q-0.144 0-0.144 0t0 0.144v10.512q0 0.144 0 0.144t0.144 0h10.512q0.144 0 0.144 0t0-0.144v-10.512q0-0.144 0-0.144t-0.144 0zm14.4 0q-0.144 0-0.144 0t0 0.144v10.512q0 0.144 0 0.144t0.144 0h10.512q0.144 0 0.144 0t0-0.144v-10.512q0-0.144 0-0.144t-0.144 0zm14.4 0q-0.144 0-0.144 0t0 0.144v10.512q0 0.144 0 0.144t0.144 0h10.512q0.144 0 0.144 0t0-0.144v-10.512q0-0.144 0-0.144t-0.144 0zm-28.8 14.4q-0.144 0-0.144 0t0 0.144v10.512q0 0.144 0 0.144t0.144 0h10.512q0.144 0 0.144 0t0-0.144v-10.512q0-0.144 0-0.144t-0.144 0zm43.2 0q-0.144 0-0.144 0t0 0.144v10.512q0 0.144 0 0.144t0.144 0h10.512q0.144 0 0.144 0t0-0.144v-10.512q0-0.144 0-0.144t-0.144 0zm-43.2 14.4q-0.144 0-0.144 0t0 0.144v10.512q0 0.144 0 0.144t0.144 0h10.512q0.144 0 0.144 0t0-0.144v-10.512q0-0.144 0-0.144t-0.144 0zm43.2 0q-0.144 0-0.144 0t0 0.144v10.512q0 0.144 0 0.144t0.144 0h10.512q0.144 0 0.144 0t0-0.144v-10.512q0-0.144 0-0.144t-0.144 0zm-43.2 14.4q-0.144 0-0.144 0t0 0.144v10.512q0 0.144 0 0.144t0.144 0h10.512q0.144 0 0.144 0t0-0.144v-10.512q0-0.144 0-0.144t-0.144 0zm43.2 0q-0.144 0-0.144 0t0 0.144v10.512q0 0.144 0 0.144t0.144 0h10.512q0.144 0 0.144 0t0-0.144v-10.512q0-0.144 0-0.144t-0.144 0zm-43.2 14.4q-0.144 0-0.144 0t0 0.144v10.512q0 0.144 0 0.144t0.144 0h10.512q0.144 0 0.144 0t0-0.144v-10.512q0-0.144 0-0.144t-0.144 0zm43.2 0q-0.144 0-0.144 0t0 0.144v10.512q0 0.144 0 0.144t0.144 0h10.512q0.144 0 0.144 0t0-0.144v-10.512q0-0.144 0-0.144t-0.144 0zm-43.2 14.4q-0.144 0-0.144 0t0 0.144v10.512q0 0.144 0 0.144t0.144 0h10.512q0.144 0 0.144 0t0-0.144v-10.512q0-0.144 0-0.144t-0.144 0zm43.2 0q-0.144 0-0.144 0t0 0.144v10.512q0 0.144 0 0.144t0.144 0h10.512q0.144 0 0.144 0t0-0.144v-10.512q0-0.144 0-0.144t-0.144 0zm-57.6 14.4q-0.144 0-0.144 0t0 0.144v10.512q0 0.144 0 0.144t0.144 0h10.512q0.144 0 0.144 0t0-0.144v-10.512q0-0.144 0-0.144t-0.144 0zm14.4 0q-0.144 0-0.144 0t0 0.144v10.512q0 0.144 0 0.144t0.144 0h10.512q0.144 0 0.144 0t0-0.144v-10.512q0-0.144 0-0.144t-0.144 0zm14.4 0q-0.144 0-0.144 0t0 0.144v10.512q0 0.144 0 0.144t0.144 0h10.512q0.144 0 0.144 0t0-0.144v-10.512q0-0.144 0-0.144t-0.144 0zm14.4 0q-0.144 0-0.144 0t0 0.144v10.512q0 0.144 0 0.144t0.144 0h10.512q0.144 0 0.144 0t0-0.144v-10.512q0-0.144 0-0.144t-0.144 0zm49.2-86.4q-0.144 0-0.144 0t0 0.144v10.512q0 0.144 0 0.144t0.144 0h10.512q0.144 0 0.144 0t0-0.144v-10.512q0-0.144 0-0.144t-0.144 0zm57.6 0q-0.144 0-0.144 0t0 0.144v10.512q0 0.144 0 0.144t0.144 0h10.512q0.144 0 0.144 0t0-0.144v-10.512q0-0.144 0-0.144t-0.144 0zm-57.6 14.4q-0.144 0-0.144 0t0 0.144v10.512q0 0.144 0 0.144t0.144 0h10.512q0.144 0 0.144 0t0-0.144v-10.512q0-0.144 0-0.144t-0.144 0zm57.6 0q-0.144 0-0.144 0t0 0.144v10.512q0 0.144 0 0.144t0.144 0h10.512q0.144 0 0.144 0t0-0.144v-10.512q0-0.144 0-0.144t-0.144 0zm-43.2 14.4q-0.144 0-0.144 0t0 0.144v10.512q0 0.144 0 0.144t0.144 0h10.512q0.144 0 0.144 0t0-0.144v-10.512q0-0.144 0-0.144t-0.144 0zm28.8 0q-0.144 0-0.144 0t0 0.144v10.512q0 0.144 0 0.144t0.144 0h10.512q0.144 0 0.144 0t0-0.144v-10.512q0-0.144 0-0.144t-0.144 0zm-14.4 14.4q-0.144 0-0.144 0t0 0.144v10.512q0 0.144 0 0.144t0.144 0h10.512q0.144 0 0.144 0t0-0.144v-10.512q0-0.144 0-0.144t-0.144 0zm0 14.4q-0.144 0-0.144 0t0 0.144v10.512q0 0.144 0 0.144t0.144 0h10.512q0.144 0 0.144 0t0-0.144v-10.512q0-0.144 0-0.144t-0.144 0zm0 14.4q-0.144 0-0.144 0t0 0.144v10.512q0 0.144 0 0.144t0.144 0h10.512q0.144 0 0.144 0t0-0.144v-10.512q0-0.144 0-0.144t-0.144 0zm0 14.4q-0.144 0-0.144 0t0 0.144v10.512q0 0.144 0 0.144t0.144 0h10.512q0.144 0 0.144 0t0-0.144v-10.512q0-0.144 0-0.144t-0.144 0zm63.6-86.4q-0.144 0-0.144 0t0 0.144v10.512q0 0.144 0 0.144t0.144 0h10.512q0.144 0 0.144 0t0-0.144v-10.512q0-0.144 0-0.144t-0.144 0zm14.4 0q-0.144 0-0.144 0t0 0.144v10.512q0 0.144 0 0.144t0.144 0h10.512q0.144 0 0.144 0t0-0.144v-10.512q0-0.144 0-0.144t-0.144 0zm14.4 0q-0.144 0-0.144 0t0 0.144v10.512q0 0.144 0 0.144t0.144 0h10.512q0.144 0 0.144 0t0-0.144v-10.512q0-0.144 0-0.144t-0.144 0zm14.4 0q-0.144 0-0.144 0t0 0.144v10.512q0 0.144 0 0.144t0.144 0h10.512q0.144 0 0.144 0t0-0.144v-10.512q0-0.144 0-0.144t-0.144 0zm14.4 0q-0.144 0-0.144 0t0 0.144v10.512q0 0.144 0 0.144t0.144 0h10.512q0.144 0 0.144 0t0-0.144v-10.512q0-0.144 0-0.144t-0.144 0zm-28.8 14.4q-0.144 0-0.144 0t0 0.144v10.512q0 0.144 0 0.144t0.144 0h10.512q0.144 0 0.144 0t0-0.144v-10.512q0-0.144 0-0.144t-0.144 0zm0 14.4q-0.144 0-0.144 0t0 0.144v10.512q0 0.144 0 0.144t0.144 0h10.512q0.144 0 0.144 0t0-0.144v-10.512q0-0.144 0-0.144t-0.144 0zm0 14.4q-0.144 0-0.144 0t0 0.144v10.512q0 0.144 0 0.144t0.144 0h10.512q0.144 0 0.144 0t0-0.144v-10.512q0-0.144 0-0.144t-0.144 0zm0 14.4q-0.144 0-0.144 0t0 0.144v10.512q0 0.144 0 0.144t0.144 0h10.512q0.144 0 0.144 0t0-0.144v-10.512q0-0.144 0-0.144t-0.144 0zm0 14.4q-0.144 0-0.144 0t0 0.144v10.512q0 0.144 0 0.144t0.144 0h10.512q0.144 0 0.144 0t0-0.144v-10.512q0-0.144 0-0.144t-0.144 0zm0 14.4q-0.144 0-0.144 0t0 0.144v10.512q0 0.144 0 0.144t0.144 0h10.512q0.144 0 0.144 0t0-0.144v-10.512q0-0.144 0-0.144t-0.144 0z" fill="#ffffff" stroke-width="12" aria-label="CREDYT"/>
  </g>
 </svg>
</svg>
